<svg width="17" height="16" viewBox="0 0 17 16" fill="none" xmlns="http://www.w3.org/2000/svg">
<path d="M16.5 13.8V5.8C16.5 5.37565 16.3314 4.96869 16.0314 4.66863C15.7313 4.36857 15.3243 4.2 14.9 4.2H9.4888C9.19161 4.19999 8.90029 4.11721 8.6475 3.96093C8.39471 3.80465 8.19045 3.58105 8.0576 3.3152L7.3424 1.8848C7.20949 1.61883 7.0051 1.39515 6.75216 1.23886C6.49922 1.08258 6.20773 0.999862 5.9104 1H2.1C1.67565 1 1.26869 1.16857 0.968629 1.46863C0.668571 1.76869 0.5 2.17565 0.5 2.6V13.8C0.5 14.2243 0.668571 14.6313 0.968629 14.9314C1.26869 15.2314 1.67565 15.4 2.1 15.4H14.9C15.3243 15.4 15.7313 15.2314 16.0314 14.9314C16.3314 14.6313 16.5 14.2243 16.5 13.8Z" stroke="#F2671B" stroke-width="0.75" stroke-linecap="round" stroke-linejoin="round"/>
</svg>
